<svg width="34" height="34" viewBox="0 0 34 34" fill="none" xmlns="http://www.w3.org/2000/svg">
<path d="M27.625 22.3125H24.4375V19.125H22.3125V22.3125H19.125V24.4375H22.3125V27.625H24.4375V24.4375H27.625V22.3125Z" fill="black"/>
<path d="M23.375 31.875C18.7 31.875 14.875 28.05 14.875 23.375C14.875 18.7 18.7 14.875 23.375 14.875C28.05 14.875 31.875 18.7 31.875 23.375C31.875 28.05 28.05 31.875 23.375 31.875ZM23.375 17C19.8688 17 17 19.8688 17 23.375C17 26.8813 19.8688 29.75 23.375 29.75C26.8813 29.75 29.75 26.8813 29.75 23.375C29.75 19.8688 26.8813 17 23.375 17Z" fill="black"/>
<path d="M29.75 6.375C29.75 5.20625 28.7938 4.25 27.625 4.25H23.375V2.125H21.25V4.25H12.75V2.125H10.625V4.25H6.375C5.20625 4.25 4.25 5.20625 4.25 6.375V27.625C4.25 28.7938 5.20625 29.75 6.375 29.75H12.75V27.625H6.375V6.375H10.625V8.5H12.75V6.375H21.25V8.5H23.375V6.375H27.625V12.75H29.75V6.375Z" fill="black"/>
</svg>
