<svg width="31" height="35" viewBox="0 0 31 35" fill="none" xmlns="http://www.w3.org/2000/svg">
<path d="M15.5 18.4333C15.0387 18.4354 14.5907 18.6084 14.225 18.9258C13.8592 19.2433 13.596 19.6876 13.4757 20.1904C13.3553 20.6932 13.3846 21.2267 13.559 21.7089C13.7334 22.1911 14.0432 22.5953 14.4408 22.8594V26.25H16.585V22.8594C16.8996 22.6493 17.1607 22.3508 17.3429 21.9931C17.5251 21.6353 17.6222 21.2304 17.6248 20.8177V20.8177C17.6248 20.5034 17.5697 20.1921 17.4628 19.9019C17.3559 19.6116 17.1992 19.3481 17.0017 19.1265C16.8042 18.9049 16.5699 18.7296 16.3121 18.6106C16.0544 18.4917 15.7784 18.4314 15.5 18.4333V18.4333Z" stroke="black" stroke-linecap="round" stroke-linejoin="round"/>
<path d="M23.4373 12.9573H7.55625C6.01538 12.9573 4.76625 14.3676 4.76625 16.1073V28.5688C4.76625 30.3084 6.01538 31.7188 7.55625 31.7188H23.4373C24.9782 31.7188 26.2273 30.3084 26.2273 28.5688V16.1073C26.2273 14.3676 24.9782 12.9573 23.4373 12.9573Z" stroke="black" stroke-linecap="round" stroke-linejoin="round"/>
<path d="M8.62187 12.9573V11.0542C8.62187 8.99266 9.34721 7.01559 10.6383 5.55788C11.9294 4.10018 13.6805 3.28125 15.5065 3.28125C17.3324 3.28125 19.0835 4.10018 20.3746 5.55788C21.6657 7.01559 22.391 8.99266 22.391 11.0542V12.9573" stroke="black" stroke-linecap="round" stroke-linejoin="round"/>
</svg>
